<?xml version="1.0" encoding="UTF-8"?>
<svg version="1.1" xmlns="http://www.w3.org/2000/svg" width="1024" height="1024">
<path d="M0 0 C337.92 0 675.84 0 1024 0 C1024 337.92 1024 675.84 1024 1024 C686.08 1024 348.16 1024 0 1024 C0 686.08 0 348.16 0 0 Z " fill="#2B3034" transform="translate(0,0)"/>
<path d="M0 0 C1.05409058 0.00141495 2.10818115 0.0028299 3.19421387 0.00428772 C6.53575571 0.00985117 9.87722867 0.02239684 13.21875 0.03515625 C15.49479069 0.04017598 17.77083245 0.04473805 20.046875 0.04882812 C25.60418987 0.05980861 31.16146501 0.07651003 36.71875 0.09765625 C36.86822049 5.46862904 36.97648839 10.83836462 37.04833984 16.2109375 C37.07832243 18.03439449 37.11912387 19.85770961 37.17138672 21.68066406 C37.68396226 40.03287859 37.68396226 40.03287859 32.11572266 47.22705078 C28.26279488 52.38628402 29.21124753 60.01477455 29.71875 66.09765625 C30.59646497 69.44300417 31.89308161 72.16969752 33.71875 75.09765625 C34.30269531 76.05285156 34.30269531 76.05285156 34.8984375 77.02734375 C39.45622154 83.31115252 46.66756654 86.17038586 54.14453125 87.54296875 C60.8355217 87.89950465 67.56695165 85.47712203 72.88671875 81.4609375 C74.71875 80.09765625 74.71875 80.09765625 76.71875 80.09765625 C77.09 79.32421875 77.09 79.32421875 77.46875 78.53515625 C78.81314219 75.91359148 80.29682521 73.40198421 81.81640625 70.87890625 C84.98310815 64.62775444 84.84708896 55.97422673 82.9296875 49.38671875 C81.63801264 46.41882461 80.46430554 43.84637291 78.1640625 41.53637695 C75.97524631 37.84311937 76.34705966 34.38996913 76.42578125 30.17578125 C76.42880249 29.41313965 76.43182373 28.65049805 76.43493652 27.86474609 C76.45059059 25.02557778 76.4924747 22.18660292 76.53125 19.34765625 C76.593125 12.99515625 76.655 6.64265625 76.71875 0.09765625 C101.46875 0.09765625 126.21875 0.09765625 151.71875 0.09765625 C151.821875 6.36765625 151.925 12.63765625 152.03125 19.09765625 C152.07677002 21.06089844 152.12229004 23.02414063 152.16918945 25.046875 C152.18381069 26.62628478 152.19654748 28.20571359 152.20703125 29.78515625 C152.23261108 30.58630859 152.25819092 31.38746094 152.2845459 32.21289062 C152.28934078 38.48843604 150.32209921 42.07355662 146.71875 47.09765625 C143.2945045 54.01922566 143.48979594 62.19843803 145.78125 69.46875 C149.66707626 77.92675771 154.5455128 82.70339816 163.21875 85.97265625 C171.63073516 88.37402637 178.09419716 87.20039183 185.71875 83.09765625 C192.72177589 78.34474349 197.03014599 72.43122976 198.71875 64.09765625 C199.67019923 54.33360347 197.59524967 46.93298914 191.71875 39.09765625 C191.71875 26.22765625 191.71875 13.35765625 191.71875 0.09765625 C227.02875 0.09765625 262.33875 0.09765625 298.71875 0.09765625 C298.71875 39.09765625 298.71875 39.09765625 293.71875 47.09765625 C290.84024594 54.49952382 290.62323589 61.82641341 293.34375 69.28515625 C296.77046363 76.87627881 301.23044332 81.74140645 308.87890625 85.21484375 C316.80045127 87.67738732 325.01890303 86.8913352 332.5 83.41796875 C338.33813282 79.94386859 342.56140797 75.15410229 345.0546875 68.8125 C347.28441375 59.69685446 346.67605273 51.10207066 342.0078125 42.953125 C340.71604779 40.97677309 340.71604779 40.97677309 338.71875 39.09765625 C338.71875 26.22765625 338.71875 13.35765625 338.71875 0.09765625 C367.09875 0.09765625 395.47875 0.09765625 424.71875 0.09765625 C424.71875 38.09765625 424.71875 38.09765625 418.71875 48.09765625 C415.55927698 54.99105193 415.76815686 62.23447003 418.34375 69.28515625 C421.77197094 76.87961791 426.23092673 81.72708996 433.87109375 85.21875 C440.81110547 87.36072893 449.11531174 87.28787309 455.8125 84.265625 C463.75312557 79.40036466 468.74579517 73.50975946 471.46875 64.66015625 C471.55125 63.81453125 471.63375 62.96890625 471.71875 62.09765625 C471.79351563 61.47632813 471.86828125 60.855 471.9453125 60.21484375 C472.42618715 53.15357912 469.91497969 47.30609028 466.71875 41.09765625 C466.05875 40.43765625 465.39875 39.77765625 464.71875 39.09765625 C464.54335564 36.15668888 464.48742625 33.31112276 464.5234375 30.37109375 C464.52768234 29.07686996 464.52768234 29.07686996 464.53201294 27.75650024 C464.54322667 24.99507905 464.56833316 22.23397975 464.59375 19.47265625 C464.60377827 17.60286926 464.61290438 15.7330772 464.62109375 13.86328125 C464.64316988 9.27461516 464.67770766 4.68619032 464.71875 0.09765625 C471.29826259 0.0207936 477.87765694 -0.03127981 484.45751953 -0.06713867 C486.68998542 -0.08210762 488.9224225 -0.10249004 491.15478516 -0.12866211 C511.13472627 -0.35682534 530.15954736 0.06374629 545.5546875 14.703125 C556.81491432 27.16254565 563.05547204 41.20211855 562.97322559 58.05694866 C562.97803531 59.52624009 562.97803531 59.52624009 562.98294219 61.02521417 C562.99124723 64.30932419 562.98531603 67.59325208 562.97944641 70.87736511 C562.98246687 73.25501558 562.98635582 75.63266508 562.99103898 78.01031286 C562.99918976 83.18087126 563.00111569 88.3513935 562.99753571 93.52195549 C562.99222602 101.21105171 562.99832674 108.90010963 563.00661864 116.58920168 C563.02185987 131.12201354 563.02356352 145.65480797 563.02109561 160.18762615 C563.0192628 171.41158336 563.0210223 182.63553485 563.02532005 193.85949135 C563.02592246 195.47216419 563.02652365 197.08483704 563.02712366 198.69750989 C563.02803091 201.12768997 563.02893958 203.55787005 563.02985601 205.98805013 C563.03828598 228.58387475 563.04262099 251.17969722 563.03844929 273.77552319 C563.03829291 274.62737759 563.03813654 275.47923199 563.03797542 276.35690016 C563.03716964 280.67439898 563.03632387 284.99189778 563.03546212 289.30939659 C563.03529103 290.16685849 563.03511994 291.02432039 563.03494367 291.90776599 C563.03459702 293.64176315 563.03424849 295.37576032 563.03389808 297.10975748 C563.02854202 324.08498471 563.03646785 351.06017925 563.05493164 378.03540039 C563.07565428 408.34622231 563.08637375 438.65702397 563.08235615 468.96785337 C563.08196081 472.20081635 563.08159927 475.43377934 563.08125877 478.66674232 C563.08116804 479.46277165 563.08107731 480.25880098 563.08098383 481.0789524 C563.07981848 493.08919017 563.08646153 505.09940747 563.09707069 517.10964012 C563.10912744 530.77251269 563.11067628 544.43534021 563.09828053 558.09821346 C563.09165686 565.74072178 563.09327156 573.38312237 563.10686904 581.02562205 C563.11609838 586.73750198 563.109584 592.44927865 563.09702124 598.16114823 C563.09436885 600.46798912 563.09675783 602.7748426 563.10475711 605.08167114 C563.17309078 626.26138129 561.06517844 643.74624269 545.5078125 659.46875 C534.14647212 670.17768848 520.97075871 674.26185337 505.59811115 674.22908401 C504.24659888 674.23216297 504.24659888 674.23216297 502.86778334 674.23530412 C499.84480992 674.24096425 496.8218822 674.23951808 493.79890442 674.23809814 C491.61114582 674.24068234 489.42338769 674.24369565 487.23563021 674.24710155 C481.22037498 674.25516829 475.20513167 674.25696094 469.18987167 674.25769901 C462.70367543 674.25955011 456.21748538 674.26709768 449.73129272 674.27383423 C434.8079307 674.2883916 419.88456996 674.29394356 404.96120212 674.29852617 C397.58482873 674.30086325 390.20845611 674.304466 382.83208333 674.30822155 C357.57611247 674.32105534 332.32014203 674.33177511 307.06416798 674.33522415 C305.47928213 674.33544578 303.89439629 674.33566757 302.30951045 674.3358895 C300.72082846 674.33611014 299.13214647 674.33633063 297.54346448 674.33655095 C294.3563689 674.3369935 291.16927332 674.33744062 287.98217773 674.33789062 C286.7968595 674.33805471 286.7968595 674.33805471 285.58759544 674.33822211 C259.96378029 674.34185291 234.33999343 674.3577747 208.71618911 674.38108099 C181.61733078 674.40568382 154.51848861 674.41939718 127.41961879 674.42059207 C124.44419682 674.42076352 121.46877485 674.42097895 118.49335289 674.4212265 C117.76073456 674.42128227 117.02811624 674.42133804 116.27329736 674.4213955 C104.4904041 674.42254548 92.70753991 674.43356289 80.92465647 674.44811356 C69.07909798 674.46248858 57.23357988 674.46545758 45.38801501 674.45767358 C38.97242401 674.45376498 32.5569307 674.45470711 26.1413517 674.46873093 C20.26585316 674.48145675 14.39052586 674.48028373 8.5150276 674.46814021 C6.39188636 674.46618097 4.26873304 674.46927214 2.14560876 674.47798458 C-17.16230423 674.55218679 -32.42433991 672.34058675 -46.99609375 658.5078125 C-58.82961927 646.02698303 -63.61908286 630.84814775 -63.53572559 613.92070961 C-63.53893207 612.94195146 -63.54213855 611.9631933 -63.54544219 610.95477581 C-63.55372288 607.68533579 -63.54782461 604.41607988 -63.54194641 601.14663696 C-63.54496797 598.77479729 -63.54885747 596.40295859 -63.55353898 594.03112161 C-63.56168019 588.87948305 -63.56361973 583.72788078 -63.56003571 578.57623863 C-63.5547201 570.91536147 -63.56083261 563.25452267 -63.56911864 555.59364967 C-63.58434924 541.11441315 -63.58606469 526.63519413 -63.58359561 512.15595128 C-63.58176214 500.97446275 -63.58352369 489.79297996 -63.58782005 478.61149216 C-63.58842246 477.00440818 -63.58902365 475.3973242 -63.58962366 473.79024022 C-63.59053092 471.36844954 -63.59143959 468.94665886 -63.59235601 466.52486818 C-63.6007841 444.0119176 -63.6051222 421.49896917 -63.60094929 398.98601723 C-63.60079291 398.13753536 -63.60063654 397.28905349 -63.60047542 396.41486005 C-63.59966965 392.11452803 -63.59882388 387.81419601 -63.59796212 383.513864 C-63.59779103 382.65982145 -63.59761994 381.80577891 -63.59744367 380.92585629 C-63.59709702 379.19877571 -63.59674849 377.47169512 -63.59639808 375.74461454 C-63.59104059 348.86976911 -63.59897268 321.99495649 -63.61743164 295.12011719 C-63.63815165 264.91806187 -63.64887439 234.71602688 -63.64485615 204.51396406 C-63.64446081 201.29312667 -63.64409927 198.07228927 -63.64375877 194.85145187 C-63.64366804 194.05841443 -63.64357731 193.26537698 -63.64348383 192.4483081 C-63.64231833 180.48167016 -63.64896254 168.51505276 -63.65957069 156.54841995 C-63.67162389 142.93790207 -63.67318022 129.32742941 -63.66078053 115.71691085 C-63.65473707 108.77271213 -63.65342105 101.82859398 -63.66578293 94.88440132 C-63.67661489 88.52606257 -63.67357018 82.16788629 -63.65952124 75.80955522 C-63.65686694 73.51086722 -63.65926378 71.2121666 -63.66725711 68.91349097 C-63.73160878 49.02525235 -62.06391114 32.42912383 -47.5625 17.34765625 C-46.8096875 16.60515625 -46.056875 15.86265625 -45.28125 15.09765625 C-44.6315625 14.43765625 -43.981875 13.77765625 -43.3125 13.09765625 C-31.40007761 1.7710907 -15.70660927 -0.08037099 0 0 Z " fill="#FDFDFA" transform="translate(262.28125,183.90234375)"/>
<path d="M0 0 C5.43147846 2.70671684 8.40389453 5.92424779 11.4765625 11.109375 C12.79237149 15.05680197 12.59967289 18.82024549 12.57421875 22.93359375 C12.57321167 23.69724243 12.57220459 24.46089111 12.57116699 25.24768066 C12.56593914 28.09742741 12.55197786 30.94715273 12.5390625 33.796875 C12.5184375 40.17 12.4978125 46.543125 12.4765625 53.109375 C37.2265625 53.109375 61.9765625 53.109375 87.4765625 53.109375 C87.27935189 40.63421058 87.27935189 40.63421058 87.02612305 28.16015625 C87.01150181 26.58074647 86.99876502 25.00131766 86.98828125 23.421875 C86.96270142 22.62072266 86.93712158 21.81957031 86.9107666 20.99414062 C86.90555306 14.1706522 89.22616918 9.39245184 94.02592468 4.54443359 C99.05115047 0.16689406 103.19401391 -0.25348191 109.625 -0.16015625 C114.93501276 0.34174907 118.61579613 2.12672437 122.265625 6.015625 C133.13551567 19.82193163 127.4765625 33.44456666 127.4765625 53.109375 C162.7865625 53.109375 198.0965625 53.109375 234.4765625 53.109375 C234.4765625 40.239375 234.4765625 27.369375 234.4765625 14.109375 C241.0362442 2.30194794 241.0362442 2.30194794 248.4765625 -0.890625 C256.24770271 -1.89293287 261.60160489 -0.32373792 268.1640625 3.796875 C281.07757975 16.71039225 274.4765625 36.61127707 274.4765625 53.109375 C302.8565625 53.109375 331.2365625 53.109375 360.4765625 53.109375 C360.4765625 40.239375 360.4765625 27.369375 360.4765625 14.109375 C368.55485431 1.1841081 368.55485431 1.1841081 376.4765625 -0.890625 C382.80981857 -1.51356822 387.23765025 -0.59250101 392.4765625 3.109375 C396.61158458 6.96994871 400.11985456 11.18374186 400.65054321 17.02406311 C400.70749621 19.32194789 400.70145944 21.61177105 400.671875 23.91015625 C400.66986084 24.65213257 400.66784668 25.39410889 400.66577148 26.15856934 C400.65535856 28.91306803 400.62743613 31.66747815 400.6015625 34.421875 C400.5603125 40.58875 400.5190625 46.755625 400.4765625 53.109375 C416.3165625 53.109375 432.1565625 53.109375 448.4765625 53.109375 C448.4765625 53.439375 448.4765625 53.769375 448.4765625 54.109375 C432.6365625 54.109375 416.7965625 54.109375 400.4765625 54.109375 C400.569375 63.514375 400.569375 63.514375 400.6640625 73.109375 C400.67074951 75.07261719 400.67743652 77.03585938 400.68432617 79.05859375 C400.71080332 80.63805427 400.73908742 82.21748596 400.76953125 83.796875 C400.76554321 84.59802734 400.76155518 85.39917969 400.75744629 86.22460938 C400.89228623 91.63806071 402.1451306 94.9767131 405.27949524 99.39990234 C409.3479246 105.20982545 409.10334958 111.83768482 408.1171875 118.55859375 C406.23084981 126.67749315 401.1141767 132.68314541 394.47265625 137.58984375 C387.57016508 141.7194119 380.3372028 141.8881942 372.4765625 141.109375 C364.10082576 138.63367381 358.32921803 133.28140031 354.16015625 125.72265625 C350.98879958 118.68379144 350.09824559 112.36006227 352.5 104.953125 C354.43077969 100.13202663 356.34167152 96.28922964 359.4765625 92.109375 C359.8065625 79.569375 360.1365625 67.029375 360.4765625 54.109375 C332.0965625 54.109375 303.7165625 54.109375 274.4765625 54.109375 C271.91603599 89.5014538 271.91603599 89.5014538 281.4765625 102.109375 C283.88743943 109.34200579 283.66425515 118.69339129 280.4140625 125.609375 C276.1719807 132.74270809 271.20639473 137.67512513 263.28125 140.4453125 C254.99259259 142.40780799 247.21335844 142.0912562 239.765625 137.78515625 C232.85761939 132.7279303 227.96376339 126.64273158 226.4765625 118.109375 C225.28020536 108.79596181 227.88178606 100.56907692 233.4765625 93.109375 C233.8065625 80.239375 234.1365625 67.369375 234.4765625 54.109375 C199.1665625 54.109375 163.8565625 54.109375 127.4765625 54.109375 C125.07074001 89.16738793 125.07074001 89.16738793 133.4765625 101.109375 C136.83858989 108.3137194 136.31479782 116.34762972 133.9765625 123.796875 C130.75247547 131.74356838 125.03848303 136.86906864 117.3359375 140.41796875 C109.45486888 143.34853418 102.75575201 142.42372577 95.0859375 139.3515625 C87.74126241 135.85514532 83.97136864 130.81773985 80.58984375 123.453125 C77.73226686 114.87036774 78.46305939 107.36151331 82.4140625 99.296875 C85.10530501 94.48063249 85.10530501 94.48063249 86.4765625 93.109375 C86.63678619 90.22706318 86.7361783 87.3653958 86.79296875 84.48046875 C86.82094543 83.33197449 86.82094543 83.33197449 86.8494873 82.16027832 C86.91798995 79.28926568 86.97800754 76.41805567 87.0390625 73.546875 C87.1834375 67.1325 87.3278125 60.718125 87.4765625 54.109375 C62.7265625 54.109375 37.9765625 54.109375 12.4765625 54.109375 C12.5384375 60.4 12.6003125 66.690625 12.6640625 73.171875 C12.67074951 75.14422119 12.67743652 77.11656738 12.68432617 79.14868164 C12.7107966 80.730665 12.73907922 82.31261952 12.76953125 83.89453125 C12.76554321 84.70079956 12.76155518 85.50706787 12.75744629 86.33776855 C12.88763445 91.56526251 13.91772994 94.56830816 17.28178406 98.60453796 C21.77662128 104.26583657 21.12907646 112.32959578 20.4765625 119.109375 C18.32868129 127.30232395 14.80804267 132.79821897 7.6015625 137.296875 C-0.15421942 141.70125334 -6.72215327 143.6839001 -15.48828125 141.3046875 C-23.85612844 138.24456684 -29.07210113 133.80700487 -33.67578125 126.20703125 C-36.74600843 119.5147849 -36.63536409 111.18098855 -34.7265625 104.19140625 C-32.31898301 97.92243965 -32.31898301 97.92243965 -29.98242188 95.53442383 C-27.77898876 91.87199057 -28.04364794 88.38896894 -28.01171875 84.1875 C-27.99508179 83.4248584 -27.97844482 82.6622168 -27.96130371 81.87646484 C-27.90363187 79.03771313 -27.87128348 76.19849247 -27.8359375 73.359375 C-27.7328125 67.006875 -27.6296875 60.654375 -27.5234375 54.109375 C-43.6934375 54.109375 -59.8634375 54.109375 -76.5234375 54.109375 C-76.5234375 53.779375 -76.5234375 53.449375 -76.5234375 53.109375 C-60.3534375 53.109375 -44.1834375 53.109375 -27.5234375 53.109375 C-27.72037269 41.05337447 -27.72037269 41.05337447 -27.97387695 28.99853516 C-28.21165164 12.19884353 -28.21165164 12.19884353 -22.5234375 5.109375 C-15.90734512 -1.15837976 -8.75539865 -3.0901407 0 0 Z " fill="#1A2125" transform="translate(326.5234375,129.890625)"/>
<path d="M0 0 C6.95705142 6.02328788 12.62283939 13.06018294 16.31079102 21.51171875 C16.66424088 22.31826904 17.01769073 23.12481934 17.3818512 23.95581055 C17.78064735 24.87487183 17.78064735 24.87487183 18.1875 25.8125 C18.87714376 25.81271737 19.56678751 25.81293474 20.27732956 25.81315869 C61.13650925 25.82666978 101.99559197 25.86612749 142.85471041 25.93935562 C147.75893422 25.94812254 152.66315839 25.95667232 157.56738281 25.96508789 C158.54373998 25.96676695 159.52009715 25.96844602 160.5260409 25.97017596 C176.34234983 25.99685758 192.15862252 26.00594187 207.97495164 26.00854143 C224.19974942 26.01159912 240.42444229 26.03352454 256.64919269 26.07302457 C266.66359356 26.0968087 276.67778511 26.10581423 286.69221036 26.09601311 C293.55622518 26.09070402 300.42005214 26.103695 307.28401347 26.1311629 C311.24631408 26.14647595 315.20819437 26.15363735 319.17050743 26.13909721 C322.79795273 26.12596383 326.42458276 26.1358028 330.05193602 26.16393773 C331.98608607 26.17295716 333.92030249 26.15737087 335.85440361 26.14092034 C345.24275276 26.25053355 345.24275276 26.25053355 348.94598198 29.22745228 C352.38747497 33.19638027 352.37195745 35.408905 352.4375 40.625 C352.46328125 41.84832031 352.4890625 43.07164062 352.515625 44.33203125 C352.15847121 48.12041256 351.55425501 49.86434648 349.1875 52.8125 C344.95469471 56.07218072 341.14746068 56.23224327 335.99345398 56.17326355 C334.76198009 56.17710846 334.76198009 56.17710846 333.50562793 56.18103105 C330.75705096 56.18596906 328.00902434 56.1694758 325.26049805 56.15307617 C323.28934238 56.1522299 321.31818576 56.15270504 319.34703064 56.15440369 C313.99617496 56.15526507 308.64552067 56.13761601 303.29471183 56.11668181 C297.70265455 56.09793896 292.11059275 56.09616646 286.51850891 56.09260559 C275.92925663 56.08327811 265.34009717 56.05865475 254.75088578 56.02855712 C242.69538953 55.99503504 230.63988887 55.97853261 218.58435762 55.96347082 C193.7853536 55.93210586 168.986432 55.87933163 144.1875 55.8125 C144.20844727 56.53840332 144.22939453 57.26430664 144.25097656 58.01220703 C144.3344365 61.32049555 144.38625539 64.62856211 144.4375 67.9375 C144.47101563 69.07960938 144.50453125 70.22171875 144.5390625 71.3984375 C144.66259797 82.02248773 144.66259797 82.02248773 140.1875 86.8125 C137.26502427 88.27373786 134.62896161 88.0602615 131.375 88.125 C130.15167969 88.16238281 128.92835938 88.19976563 127.66796875 88.23828125 C123.56789721 87.73670123 122.04457 86.74138145 119.1875 83.8125 C117.1304193 80.5416389 116.95145412 78.00081254 116.9921875 74.171875 C117.00185547 72.56699219 117.00185547 72.56699219 117.01171875 70.9296875 C117.03685547 69.26292969 117.03685547 69.26292969 117.0625 67.5625 C117.07152344 66.43585938 117.08054687 65.30921875 117.08984375 64.1484375 C117.11339237 61.36970078 117.14926275 58.59107341 117.1875 55.8125 C110.9175 55.8125 104.6475 55.8125 98.1875 55.8125 C98.23390625 57.63136719 98.2803125 59.45023438 98.328125 61.32421875 C98.36564517 63.71612941 98.40204506 66.10805783 98.4375 68.5 C98.47101563 69.69818359 98.50453125 70.89636719 98.5390625 72.13085938 C98.55195313 73.28779297 98.56484375 74.44472656 98.578125 75.63671875 C98.59907227 76.69979248 98.62001953 77.76286621 98.64160156 78.8581543 C98.07335953 82.5550881 96.80082218 84.18295517 94.1875 86.8125 C90.85499498 87.92333501 88.25711042 87.98009585 84.75 88 C83.61691406 88.01417969 82.48382813 88.02835938 81.31640625 88.04296875 C76.64701785 87.69903128 76.64701785 87.69903128 74.1875 85.8125 C71.1875 79.8125 71.1875 79.8125 71.1875 55.8125 C54.3575 55.8125 37.5275 55.8125 20.1875 55.8125 C19.1975 59.7725 18.2075 63.7325 17.1875 67.8125 C10.0836229 83.61114463 -0.98710793 94.97630056 -16.984375 101.74609375 C-33.35006567 107.91713457 -48.80063085 107.39844835 -64.8125 100.8125 C-79.93320169 93.69445539 -90.50819869 81.04324565 -96.8125 65.8125 C-102.0673323 49.8511929 -100.76568798 33.94029795 -93.8125 18.75 C-85.31692865 2.68889879 -71.65206673 -7.28354679 -54.54296875 -12.9375 C-35.40593666 -18.05017648 -15.29693332 -11.7390115 0 0 Z " fill="#2277CC" transform="translate(391.8125,488.1875)"/>
<path d="M0 0 C7.33597935 5.88164195 12.8713188 12.49494507 17.38525391 20.78369141 C17.74361328 21.42822266 18.10197266 22.07275391 18.47119141 22.73681641 C19.58439669 24.84067227 20.38525391 26.37368195 20.38525391 28.78369141 C21.07489766 28.7817928 21.76454142 28.7798942 22.47508347 28.77793807 C63.33417558 28.66608731 104.19324994 28.58027869 145.05246431 28.52836476 C149.95668871 28.5221111 154.86091279 28.5156395 159.76513672 28.5090332 C160.74149389 28.50772165 161.71785105 28.5064101 162.7237948 28.5050588 C178.54014657 28.48329257 194.35640762 28.44386433 210.17270555 28.39792743 C226.3974469 28.35119668 242.6221407 28.32340317 258.8469466 28.31324893 C268.86139759 28.30638275 278.87559219 28.28468403 288.88996427 28.24410907 C295.75392723 28.21771245 302.61775732 28.20968341 309.48176737 28.21618452 C313.44410801 28.21939224 317.40600012 28.21441917 321.36826134 28.18766403 C324.99564291 28.16334874 328.62227395 28.16209176 332.24968992 28.17919693 C334.18389135 28.18231306 336.11808384 28.16073213 338.05215752 28.13828486 C347.44049976 28.21948544 347.44049976 28.21948544 351.14373589 31.19627094 C354.58393584 35.16734932 354.56969875 37.37909335 354.63525391 42.59619141 C354.66103516 43.81951172 354.68681641 45.04283203 354.71337891 46.30322266 C354.36127804 50.0380068 353.65128803 51.83467036 351.38525391 54.78369141 C347.62834575 57.28829684 344.70414965 57.0567932 340.35578918 57.02420044 C339.52834833 57.02590929 338.70090748 57.02761814 337.84839267 57.02937877 C335.06607764 57.03268221 332.28400192 57.02165596 329.50170898 57.01074219 C327.51114406 57.01017826 325.52057872 57.01049428 323.53001404 57.0116272 C318.11710494 57.01220242 312.70428399 57.00042065 307.29139543 56.98647928 C301.63792759 56.9740002 295.98445787 56.97280366 290.33097839 56.97042847 C279.62127024 56.96420539 268.91160279 56.94778338 258.20191258 56.92772949 C246.01102864 56.90539623 233.82014279 56.89438354 221.62924349 56.88433862 C196.54789104 56.86341787 171.46657475 56.82822582 146.38525391 56.78369141 C146.40620117 57.57541748 146.42714844 58.36714355 146.44873047 59.18286133 C146.53200858 62.77884158 146.58395282 66.37461876 146.63525391 69.97119141 C146.66876953 71.21707031 146.70228516 72.46294922 146.73681641 73.74658203 C146.74970703 74.94863281 146.76259766 76.15068359 146.77587891 77.38916016 C146.79682617 78.49412842 146.81777344 79.59909668 146.83935547 80.73754883 C146.28197481 84.47649424 144.9913481 86.10035941 142.38525391 88.78369141 C139.39815931 90.2772387 136.3479091 90.09000369 133.07275391 90.15869141 C131.75662109 90.20767578 130.44048828 90.25666016 129.08447266 90.30712891 C124.53589326 89.66350732 123.17372014 88.35167259 120.38525391 84.78369141 C119.3259621 81.605816 119.27066451 79.35780197 119.28759766 76.02197266 C119.29082031 74.90371094 119.29404297 73.78544922 119.29736328 72.63330078 C119.30574219 71.46605469 119.31412109 70.29880859 119.32275391 69.09619141 C119.32726562 67.91734375 119.33177734 66.73849609 119.33642578 65.52392578 C119.34822106 62.61049274 119.36615664 59.69708574 119.38525391 56.78369141 C113.11525391 56.78369141 106.84525391 56.78369141 100.38525391 56.78369141 C100.43166016 58.67474609 100.47806641 60.56580078 100.52587891 62.51416016 C100.56339832 64.99982145 100.5997983 67.48549982 100.63525391 69.97119141 C100.66876953 71.21707031 100.70228516 72.46294922 100.73681641 73.74658203 C100.74970703 74.94863281 100.76259766 76.15068359 100.77587891 77.38916016 C100.79682617 78.49412842 100.81777344 79.59909668 100.83935547 80.73754883 C100.28197481 84.47649424 98.9913481 86.10035941 96.38525391 88.78369141 C93.39815931 90.2772387 90.3479091 90.09000369 87.07275391 90.15869141 C85.75662109 90.20767578 84.44048828 90.25666016 83.08447266 90.30712891 C78.5510548 89.66565267 77.20003822 88.30085155 74.38525391 84.78369141 C73.02824744 82.06967847 73.27286781 79.93522824 73.28759766 76.90087891 C73.29009521 75.85013184 73.29259277 74.79938477 73.29516602 73.71679688 C73.30427002 72.37762207 73.31337402 71.03844727 73.32275391 69.65869141 C73.34337891 65.40994141 73.36400391 61.16119141 73.38525391 56.78369141 C56.55525391 56.78369141 39.72525391 56.78369141 22.38525391 56.78369141 C21.72525391 60.08369141 21.06525391 63.38369141 20.38525391 66.78369141 C14.26487238 82.39893509 4.1775313 94.75197411 -11.05224609 102.09619141 C-27.75394705 109.23184246 -43.9973413 110.23375877 -61.04052734 103.41259766 C-76.92180021 96.17490281 -88.30612536 84.05817541 -94.61474609 67.70556641 C-99.90612672 52.24481363 -98.6763362 36.84362153 -92.39990234 21.88916016 C-84.16427365 5.20306028 -69.65760685 -5.08623885 -52.41552734 -10.96630859 C-34.69184368 -15.82766183 -14.44599481 -10.88145542 0 0 Z " fill="#2276CB" transform="translate(389.61474609375,646.21630859375)"/>
<path d="M0 0 C6.09085351 5.57555288 10.47197359 10.99533824 14.046875 18.41796875 C14.36354126 19.0637085 14.68020752 19.70944824 15.00646973 20.37475586 C15.77893489 21.95178105 16.54448446 23.53219053 17.30859375 25.11328125 C17.99612154 25.11387834 18.68364932 25.11447543 19.39201128 25.11509061 C60.12592933 25.15097198 100.85977248 25.20759157 141.59362189 25.2912022 C146.48282445 25.30121985 151.37202734 25.31106395 156.26123047 25.32080078 C157.23459702 25.32274215 158.20796357 25.32468353 159.21082608 25.32668373 C174.97862731 25.35771847 190.74641397 25.37468849 206.51423998 25.38647547 C222.68930806 25.3988794 238.86429962 25.42636364 255.0393194 25.46789432 C265.02298072 25.49305145 275.00651519 25.50639691 284.99020867 25.50471082 C291.83317818 25.5046811 298.67601832 25.51927812 305.51893742 25.54544553 C309.46903137 25.56011666 313.41885998 25.56827302 317.36897659 25.55908394 C320.98522126 25.55081374 324.60093219 25.560905 328.21709757 25.58561787 C330.1452766 25.59401381 332.07351027 25.58274426 334.00167048 25.5707829 C340.34255777 25.63403847 344.56782968 25.68147007 349.30859375 30.11328125 C352.10271925 35.09586921 351.98526506 40.55316281 351.30859375 46.11328125 C349.31890922 50.0240405 347.94325729 51.69017223 344.30859375 54.11328125 C341.60995902 54.30258507 339.01558076 54.37411833 336.3170929 54.35379028 C335.4937356 54.35549913 334.6703783 54.35720798 333.82207078 54.35896862 C331.05357485 54.36227197 328.28531943 54.35124594 325.5168457 54.34033203 C323.53613287 54.3397681 321.55541962 54.34008412 319.57470703 54.34121704 C314.1886564 54.34179226 308.80269436 54.3300106 303.41666436 54.31606913 C297.79122377 54.30358992 292.16578128 54.30239349 286.54032898 54.30001831 C275.88374468 54.29379526 265.22720129 54.2773733 254.57063502 54.25731933 C242.44020945 54.23498596 230.30978196 54.22397335 218.17934096 54.21392846 C193.22240252 54.19300779 168.26550043 54.15781581 143.30859375 54.11328125 C143.33215942 55.25543091 143.33215942 55.25543091 143.35620117 56.4206543 C143.41867828 59.88062065 143.45762547 63.34046815 143.49609375 66.80078125 C143.52123047 67.99896484 143.54636719 69.19714844 143.57226562 70.43164062 C143.58676758 72.16704102 143.58676758 72.16704102 143.6015625 73.9375 C143.62512817 75.5321106 143.62512817 75.5321106 143.64916992 77.15893555 C143.25990152 80.5356645 142.29239718 82.38148636 140.30859375 85.11328125 C135.5185688 88.5541507 128.89277693 87.79917968 123.30859375 87.11328125 C120.38005908 85.77680452 119.40922723 84.68072217 117.30859375 82.11328125 C116.18726635 78.89814782 116.19293338 75.85743174 116.2109375 72.47265625 C116.21416016 71.40273438 116.21738281 70.3328125 116.22070312 69.23046875 C116.22908203 68.11929688 116.23746094 67.008125 116.24609375 65.86328125 C116.25060547 64.73664063 116.25511719 63.61 116.25976562 62.44921875 C116.27153964 59.67055019 116.28947475 56.89190898 116.30859375 54.11328125 C110.03859375 54.11328125 103.76859375 54.11328125 97.30859375 54.11328125 C97.34339844 55.93214844 97.37820313 57.75101562 97.4140625 59.625 C97.44220271 62.01691785 97.46950262 64.40884568 97.49609375 66.80078125 C97.52123047 67.99896484 97.54636719 69.19714844 97.57226562 70.43164062 C97.58676758 72.16704102 97.58676758 72.16704102 97.6015625 73.9375 C97.62512817 75.5321106 97.62512817 75.5321106 97.64916992 77.15893555 C97.25990152 80.5356645 96.29239718 82.38148636 94.30859375 85.11328125 C89.52165709 88.55193226 82.88924892 87.80567023 77.30859375 87.11328125 C74.44641393 85.76025079 73.39421134 84.60443559 71.30859375 82.11328125 C68.35525289 73.25325868 70.30859375 63.45256507 70.30859375 54.11328125 C53.47859375 54.11328125 36.64859375 54.11328125 19.30859375 54.11328125 C18.64859375 57.41328125 17.98859375 60.71328125 17.30859375 64.11328125 C13.69792098 73.55504052 8.55477441 81.06979096 1.30859375 88.11328125 C0.695 88.7475 0.08140625 89.38171875 -0.55078125 90.03515625 C-10.93745252 100.06672765 -25.58554439 105.14915543 -39.81640625 105.42578125 C-56.32251921 104.99140986 -71.68625137 98.7777765 -83.87890625 87.48828125 C-96.67827804 73.90044713 -101.24790938 58.10262306 -100.96875 39.98828125 C-100.36733582 24.52505499 -92.32227794 11.80090136 -81.69140625 1.11328125 C-81.17320312 0.56027344 -80.655 0.00726563 -80.12109375 -0.5625 C-58.15948228 -21.89170905 -22.12164008 -18.79454541 0 0 Z " fill="#2177CB" transform="translate(392.69140625,328.88671875)"/>
<path d="M0 0 C1.81860375 1.0592138 3.61499512 2.15853454 5.375 3.3125 C5.98859375 3.69535156 6.6021875 4.07820313 7.234375 4.47265625 C13.63310461 9.0738046 18.04105556 17.70901668 19.375 25.3125 C20.29814454 34.50067303 18.84437198 42.44844048 13.421875 50.05078125 C6.45366688 58.27375412 -1.67104479 63.63312143 -12.59765625 64.56640625 C-20.14577302 64.84008066 -25.95919991 63.88725651 -32.625 60.3125 C-33.26050781 59.97347656 -33.89601563 59.63445313 -34.55078125 59.28515625 C-41.75932797 54.79380009 -46.9244079 46.74740566 -49.18359375 38.6484375 C-50.96040886 29.24546906 -49.36457987 21.61783856 -44.625 13.3125 C-34.5060513 -0.98947868 -16.40907372 -8.02953419 0 0 Z " fill="#FCFDFA" transform="translate(367.625,503.6875)"/>
<path d="M0 0 C9.67723112 5.39237832 15.43901923 12.43248928 19.45703125 22.66015625 C21.2168795 32.51530642 19.8488388 40.70754806 14.76171875 49.421875 C8.89767235 57.83341697 1.00195017 62.74132671 -8.91796875 65.16015625 C-18.0810807 66.44666767 -27.22389476 64.56287564 -34.7578125 59.1015625 C-43.83578487 51.19666145 -47.4714762 43.83248594 -49.2421875 31.9921875 C-49.74960749 23.50602564 -46.06351139 16.04734045 -40.66796875 9.78515625 C-36.82245257 5.80049311 -32.90251931 2.59164433 -27.91796875 0.16015625 C-27.17546875 -0.20464844 -26.43296875 -0.56945312 -25.66796875 -0.9453125 C-18.1994798 -3.37469314 -7.23358604 -2.97365392 0 0 Z " fill="#FCFDFA" transform="translate(366.91796875,342.83984375)"/>
<path d="M0 0 C8.66559574 5.33876739 13.86080558 12.41972214 17.51171875 21.87890625 C19.31007736 31.76987862 17.76552232 40.49483693 12.38671875 49.06640625 C6.71615461 56.96618479 -0.05807528 61.22249672 -9.30078125 64.06640625 C-20.56375921 65.16523337 -30.10516155 63.33301821 -39.08203125 56.01171875 C-46.23160357 49.20708194 -49.85492841 42.07331862 -50.31713867 32.19702148 C-50.53828241 21.38672003 -48.11005625 14.59035962 -40.73828125 6.50390625 C-29.83334656 -3.5786891 -13.69440608 -6.67282605 0 0 Z " fill="#FCFDFA" transform="translate(368.86328125,663.68359375)"/>
<path d="M0 0 C1.00109515 3.31070838 1.10356134 6.30084769 1.0625 9.75 C1.05347656 10.73484375 1.04445313 11.7196875 1.03515625 12.734375 C1.02355469 13.48203125 1.01195312 14.2296875 1 15 C0.01 15.495 0.01 15.495 -1 16 C-2.22485812 13.55028376 -2.16722808 11.85765539 -2.1875 9.125 C-2.20167969 8.26132813 -2.21585938 7.39765625 -2.23046875 6.5078125 C-1.98859252 3.8758712 -1.32983541 2.26019456 0 0 Z " fill="#2A2E30" transform="translate(680,234)"/>
<path d="M0 0 C2.12472576 -0.05386629 4.24983652 -0.09273071 6.375 -0.125 C7.55835938 -0.14820313 8.74171875 -0.17140625 9.9609375 -0.1953125 C13 0 13 0 15 2 C11.82587823 3.58706088 8.46361333 3.28477127 5 3 C2 2 2 2 0 1 C0 0.67 0 0.34 0 0 Z " fill="#23282A" transform="translate(425,269)"/>
<path d="M0 0 C3.3 0 6.6 0 10 0 C10.33 0.66 10.66 1.32 11 2 C8.59454362 3.20272819 7.05003047 3.10071472 4.375 3.0625 C3.14910156 3.04896484 3.14910156 3.04896484 1.8984375 3.03515625 C0.95871094 3.01775391 0.95871094 3.01775391 0 3 C0 2.01 0 1.02 0 0 Z " fill="#2D3235" transform="translate(314,269)"/>
<path d="M0 0 C0.99 0 1.98 0 3 0 C3 3.63 3 7.26 3 11 C2.01 10.67 1.02 10.34 0 10 C0 6.7 0 3.4 0 0 Z " fill="#2C3234" transform="translate(553,238)"/>
<path d="M0 0 C0.66 0.33 1.32 0.66 2 1 C0.3603125 1.8971875 0.3603125 1.8971875 -1.3125 2.8125 C-3.91074129 4.29044697 -6.04349493 5.69822933 -8 8 C-8.66 7.34 -9.32 6.68 -10 6 C-8.3811004 4.96951963 -6.75467511 3.95085322 -5.125 2.9375 C-4.22007812 2.36902344 -3.31515625 1.80054688 -2.3828125 1.21484375 C-1.20332031 0.61349609 -1.20332031 0.61349609 0 0 Z " fill="#0F64C3" transform="translate(327,319)"/>
<path d="M0 0 C-0.66 0 -1.32 0 -2 0 C-2 0.66 -2 1.32 -2 2 C-4.31 2.66 -6.62 3.32 -9 4 C-8 1 -8 1 -6.1875 -0.25 C-3.66056586 -1.11637742 -2.47778006 -0.88492145 0 0 Z " fill="#1C6FC8" transform="translate(333,479)"/>
<path d="M0 0 C0.33 0.66 0.66 1.32 1 2 C1.66 2 2.32 2 3 2 C3.33 4.31 3.66 6.62 4 9 C1.47740939 7.02579865 1.0070192 6.03254358 0.3125 2.8125 C0.209375 1.884375 0.10625 0.95625 0 0 Z " fill="#16191B" transform="translate(555,251)"/>
</svg>
